<svg width="84" height="17" viewBox="0 0 84 17" fill="none" xmlns="http://www.w3.org/2000/svg">
<path d="M34.7812 4.31543C35.893 4.31856 36.8403 4.72411 37.6436 5.48041C37.9552 5.77322 37.9708 6.2602 37.6702 6.56397C36.8967 7.34689 36.1169 8.12354 35.3324 8.8955C35.013 9.21023 34.5307 9.20397 34.2254 8.90333C33.9138 8.59486 33.92 8.11415 34.2457 7.78532C34.7515 7.27486 35.2604 6.76596 35.7755 6.26333C35.8898 6.15215 35.8992 6.10205 35.7364 6.04098C34.8032 5.69493 33.931 5.79984 33.1669 6.44183C32.373 7.10888 32.1005 7.98575 32.3542 8.98162C32.5969 9.93521 33.2358 10.5506 34.1972 10.7823C35.0772 10.9937 35.8601 10.762 36.5287 10.1497C36.7651 9.93208 37.0407 9.86162 37.3461 9.97123C37.6342 10.0746 37.8033 10.2891 37.8503 10.5897C37.8972 10.8857 37.7735 11.1221 37.5653 11.321C36.1967 12.6206 34.0093 12.7803 32.4748 11.6921C30.0336 9.96183 30.173 6.39329 32.7472 4.86504C33.3688 4.49393 34.0516 4.31543 34.7812 4.31543Z" fill="#2F4362"/>
<path d="M22.6445 8.34588C22.6461 6.32752 24.1603 4.61136 26.1677 4.35457C27.4642 4.18859 28.5806 4.58005 29.5326 5.45692C29.885 5.78104 29.8912 6.26019 29.5499 6.60311C28.7983 7.35627 28.0435 8.10788 27.2888 8.85791C26.9396 9.20396 26.4511 9.21805 26.1348 8.89706C25.8169 8.57449 25.842 8.10318 26.1974 7.7493C26.6907 7.25606 27.1823 6.76126 27.6818 6.27272C27.7961 6.16154 27.8353 6.10674 27.6442 6.03784C26.7094 5.69649 25.8388 5.80297 25.0763 6.44652C24.284 7.11514 24.0146 7.99357 24.2714 8.98787C24.5157 9.94147 25.1561 10.5537 26.1191 10.7839C26.9835 10.9906 27.757 10.7682 28.4162 10.1716C28.6401 9.96965 28.8875 9.86944 29.1866 9.94773C29.802 10.1106 29.9742 10.8371 29.506 11.2944C29.196 11.5981 28.839 11.8408 28.446 12.0256C25.7324 13.2939 22.6414 11.3319 22.6445 8.34588Z" fill="#2F4362"/>
<path d="M57.6248 4.317C58.7288 4.32013 59.6683 4.72725 60.4684 5.47259C60.7878 5.7701 60.8035 6.2602 60.4935 6.57337C59.7246 7.35003 58.9495 8.12198 58.1713 8.88924C57.8425 9.21337 57.3555 9.20867 57.0486 8.89864C56.7448 8.59017 56.7574 8.10789 57.0831 7.77906C57.5904 7.2686 58.0993 6.75971 58.6113 6.25707C58.7162 6.15373 58.7288 6.11145 58.5753 6.04412C57.5137 5.5869 56.2187 5.958 55.547 6.92099C54.8737 7.88711 54.9692 9.2212 55.7678 10.0558C56.7495 11.0798 58.2543 11.1268 59.3332 10.1685C59.817 9.73949 60.4903 9.90234 60.6579 10.4958C60.7503 10.8199 60.6391 11.0924 60.3995 11.3116C59.5352 12.1023 58.5142 12.4907 57.3414 12.3998C55.1289 12.2276 53.5224 10.4582 53.5537 8.25664C53.5803 6.31188 55.1289 4.59259 57.0611 4.35458C57.2506 4.33109 57.4369 4.31544 57.6248 4.317Z" fill="#2F4362"/>
<path d="M0.000759815 8.33651C-0.00550353 6.56085 1.20802 4.96996 2.92417 4.48455C4.06723 4.16042 5.14453 4.31231 6.16545 4.90106C6.54282 5.11871 6.65556 5.57281 6.43947 5.94548C6.21869 6.32597 5.75677 6.44811 5.37627 6.22733C3.82923 5.32697 1.91421 6.17878 1.58695 7.91216C1.25969 9.64398 2.82083 11.1691 4.55264 10.8168C4.85328 10.7557 5.12574 10.632 5.39037 10.4848C5.78809 10.264 6.23435 10.3705 6.4614 10.7463C6.68218 11.1112 6.57883 11.5653 6.2046 11.797C3.78538 13.3002 0.656845 11.9254 0.0837492 9.19302C0.0273791 8.91117 -0.00550353 8.62462 0.000759815 8.33651Z" fill="#2F4362"/>
<path d="M40.3993 5.14219C40.9426 4.74603 41.5157 4.50646 42.1358 4.38276C42.3832 4.33265 42.6337 4.30447 42.8858 4.32012C43.3117 4.34674 43.6374 4.68183 43.639 5.08738C43.639 5.5039 43.3039 5.84368 42.8654 5.84838C42.0998 5.85621 41.464 6.14902 40.9661 6.71742C40.5965 7.13863 40.382 7.6256 40.3899 8.20496C40.4024 9.31044 40.3961 10.4159 40.393 11.523C40.3914 11.9927 40.18 12.2949 39.8027 12.3873C39.2953 12.5126 38.824 12.1712 38.8162 11.6514C38.8037 10.7682 38.8115 9.8851 38.8115 9.00197C38.8115 7.71642 38.8084 6.43087 38.8131 5.14532C38.8146 4.66148 39.1622 4.3123 39.6163 4.31856C39.9702 4.32326 40.2975 4.59415 40.3726 4.94176C40.382 4.99657 40.3867 5.05137 40.3993 5.14219Z" fill="#2F4362"/>
<path d="M19.3795 5.14215C19.868 4.79296 20.3816 4.55809 20.9375 4.42343C21.2178 4.3561 21.5027 4.31695 21.7908 4.31852C22.2653 4.32165 22.6082 4.63638 22.616 5.07482C22.6239 5.51638 22.295 5.83581 21.8159 5.8499C20.6102 5.88905 19.6081 6.70642 19.3936 7.82755C19.3763 7.91837 19.3716 8.01232 19.3716 8.10471C19.3701 9.27595 19.3748 10.4456 19.3669 11.6169C19.3638 12.1649 18.8925 12.5172 18.3679 12.3841C18.083 12.3121 17.8465 12.0569 17.8058 11.7672C17.7933 11.6826 17.7901 11.595 17.7901 11.5088C17.7886 9.41218 17.7901 7.31396 17.7886 5.21731C17.7886 4.99026 17.8136 4.77104 17.9796 4.59724C18.1988 4.36862 18.4603 4.25119 18.7766 4.34514C19.1493 4.45788 19.3481 4.7178 19.3795 5.14215Z" fill="#2F4362"/>
<path d="M72.7573 8.45864C72.7573 9.5281 72.7605 10.5991 72.7558 11.6686C72.7542 12.1681 72.405 12.4969 71.9212 12.475C71.6096 12.4609 71.3277 12.2386 71.24 11.9348C71.2087 11.8236 71.1978 11.7109 71.1978 11.5934C71.1993 9.4686 71.1993 7.3422 71.1978 5.21736C71.1978 4.90419 71.3121 4.65522 71.5783 4.49081C72.084 4.17921 72.7338 4.52683 72.7558 5.11871C72.7683 5.42718 72.7589 5.73565 72.7589 6.04569C72.7573 6.85053 72.7573 7.6538 72.7573 8.45864Z" fill="#2F4362"/>
<path d="M72.7557 2.67916C72.7525 3.11133 72.3971 3.45738 71.968 3.44798C71.55 3.43859 71.2024 3.08784 71.1992 2.67446C71.1977 2.24855 71.5531 1.89624 71.9821 1.89624C72.4159 1.89937 72.7588 2.24542 72.7557 2.67916Z" fill="#2F4362"/>
<path d="M51.9051 6.00493C51.3743 5.26116 50.665 4.7507 49.7865 4.49234C48.454 4.10088 47.2326 4.36863 46.1037 5.17034C46.0959 5.08735 46.0912 5.03098 46.0833 4.97618C46.0066 4.40621 45.349 4.11653 44.8823 4.45319C44.6349 4.63169 44.5566 4.88536 44.5566 5.18757C44.5613 8.67312 44.5598 12.1571 44.5598 15.6427C44.5598 15.7209 44.5582 15.8008 44.566 15.8791C44.6114 16.3285 45.0655 16.6432 45.5024 16.5305C45.8876 16.4303 46.0896 16.1453 46.0912 15.6896C46.0927 14.3242 46.0912 12.9588 46.0912 11.5433C46.9727 12.1869 47.9122 12.4953 48.9707 12.392C50.0355 12.2886 50.9406 11.8518 51.6405 11.0516C52.9276 9.58287 53.0247 7.57547 51.9051 6.00493ZM48.5777 10.8543C47.1528 10.8371 46.0473 9.65959 46.0959 8.27539C46.1444 6.89433 47.2922 5.81233 48.6638 5.85461C50.0527 5.89689 51.1551 7.04152 51.1128 8.39596C51.083 9.77703 49.9666 10.8715 48.5777 10.8543Z" fill="#2F4362"/>
<path d="M69.7417 1.11644C69.7417 1.03032 69.7386 0.944196 69.7276 0.858075C69.6618 0.346047 69.1373 0.048538 68.666 0.259926C68.3387 0.405549 68.2056 0.668609 68.2056 1.01779C68.2072 2.32526 68.2072 3.63274 68.2072 4.94021C68.2072 5.01537 68.2072 5.09209 68.2072 5.20953C67.2959 4.53622 66.3094 4.24341 65.2211 4.36711C64.1203 4.49238 63.2106 4.99501 62.5122 5.85309C61.33 7.30775 61.3206 9.41067 62.4778 10.8747C63.0587 11.6107 63.8056 12.1039 64.7185 12.3153C65.9806 12.6097 67.1408 12.3576 68.1978 11.5653C68.2009 11.6404 68.2009 11.6827 68.2056 11.7234C68.2416 12.0538 68.4123 12.2902 68.7302 12.3936C69.0355 12.4938 69.3127 12.4218 69.5381 12.1838C69.7088 12.0037 69.7417 11.7813 69.7417 11.5449C69.7417 8.07031 69.7433 4.59416 69.7417 1.11644ZM65.7003 10.8998C64.2347 10.8919 63.1699 9.71601 63.1887 8.37565C63.1887 7.00554 64.3098 5.89537 65.694 5.89537C67.0751 5.89537 68.1962 7.01494 68.2056 8.40384C68.215 9.74889 67.0735 10.9076 65.7003 10.8998Z" fill="#2F4362"/>
<path d="M81.8799 11.0924C81.7343 10.9421 81.5902 10.7918 81.4321 10.6556C81.324 10.5632 81.3193 10.4927 81.3929 10.3706C81.7468 9.77868 81.9269 9.13669 81.9253 8.44459C81.9269 5.99719 79.7676 4.32488 77.5926 4.60829C75.7669 4.8463 74.3169 6.37456 74.2277 8.20502C74.0852 11.0893 77.0055 13.0889 79.6596 11.9286C79.8553 11.8425 80.0354 11.5998 80.2405 11.689C80.4362 11.7736 80.5771 11.9943 80.7337 12.1635C81.0751 12.5346 81.5526 12.5706 81.8987 12.2449C82.226 11.9333 82.2197 11.4432 81.8799 11.0924ZM78.0326 10.7057C76.7596 10.6947 75.7246 9.63776 75.7371 8.36473C75.7497 7.06979 76.8113 6.03007 78.1047 6.0426C79.3887 6.05513 80.4174 7.10737 80.4096 8.40075C80.4033 9.68943 79.3417 10.7182 78.0326 10.7057Z" fill="#2F4362"/>
<path d="M15.9581 11.1268C15.8109 10.9687 15.659 10.8152 15.4961 10.6727C15.3818 10.5725 15.3599 10.4942 15.446 10.3517C15.7968 9.76766 15.9659 9.12724 15.9722 8.39756C15.9643 8.27542 15.9628 8.10162 15.9393 7.93094C15.6261 5.66361 13.567 4.35927 11.6395 4.60667C9.75579 4.84938 8.27921 6.47471 8.26668 8.37407C8.24945 11.1973 11.1275 13.0653 13.7189 11.9223C13.9099 11.8377 14.0791 11.5856 14.2983 11.6952C14.4877 11.7892 14.6193 11.999 14.7759 12.1571C14.7806 12.1618 14.7837 12.1697 14.7884 12.1744C15.0984 12.5282 15.5838 12.5658 15.9205 12.262C16.2571 11.9598 16.2759 11.4666 15.9581 11.1268ZM12.103 10.7056C10.8159 10.7025 9.76362 9.6424 9.77928 8.36781C9.79493 7.07913 10.844 6.03941 12.1249 6.04254C13.4198 6.04567 14.4643 7.10105 14.458 8.39599C14.4533 9.67371 13.3979 10.7087 12.103 10.7056Z" fill="#E76A00"/>
<path d="M82.14 0C81.1128 0 80.2798 0.833024 80.2798 1.86021C80.2798 2.8874 81.1128 3.72043 82.14 3.72043C83.1672 3.72043 84.0002 2.8874 84.0002 1.86021C84.0002 0.833024 83.1672 0 82.14 0ZM82.1384 3.36968C81.3101 3.36185 80.618 2.66818 80.629 1.85552C80.6415 1.02249 81.3195 0.352313 82.1494 0.352313C82.9793 0.352313 83.6542 1.03345 83.651 1.86648C83.6479 2.6948 82.9621 3.37594 82.1384 3.36968Z" fill="#2F4362"/>
<path d="M82.9778 2.47876C82.9042 2.37229 82.8385 2.25955 82.7602 2.15777C82.6913 2.06851 82.685 2.02311 82.7915 1.94325C82.9997 1.7851 83.0718 1.50795 82.9778 1.2856C82.876 1.04759 82.6928 0.912928 82.4251 0.909796C82.1667 0.906664 81.9068 0.914494 81.6484 0.905098C81.4574 0.898835 81.3901 0.986522 81.3948 1.16346C81.3995 1.37955 81.3963 1.59407 81.3963 1.81015H81.3979C81.3979 2.05442 81.3932 2.29869 81.3995 2.54296C81.4026 2.64161 81.4402 2.73086 81.5639 2.72617C81.6782 2.72303 81.7001 2.63848 81.7111 2.54766C81.7157 2.51165 81.7142 2.47563 81.7158 2.43962C81.7236 2.07791 81.7236 2.09044 82.0947 2.07321C82.2841 2.06538 82.4047 2.11706 82.4908 2.28617C82.5566 2.413 82.6459 2.5273 82.7288 2.64474C82.7852 2.72617 82.8604 2.75748 82.9512 2.69955C83.0389 2.64004 83.0373 2.56332 82.9778 2.47876ZM82.4172 1.81642C82.3249 1.82111 82.2309 1.81798 82.1385 1.81798C82.1307 1.81798 82.1244 1.81798 82.1166 1.81798C81.6782 1.81798 81.6829 1.81798 81.7189 1.36859C81.7267 1.27307 81.7596 1.24645 81.8488 1.24958C82.0414 1.25428 82.2356 1.24802 82.4282 1.25428C82.6067 1.26054 82.7101 1.36232 82.7085 1.53926C82.7069 1.71933 82.5926 1.80702 82.4172 1.81642Z" fill="#2F4362"/>
</svg>
